<?xml version="1.0" encoding="utf-8"?>
<!-- Generator: Adobe Illustrator 23.0.2, SVG Export Plug-In . SVG Version: 6.00 Build 0)  -->
<svg version="1.1" id="Layer_1" xmlns="http://www.w3.org/2000/svg" xmlns:xlink="http://www.w3.org/1999/xlink" x="0px" y="0px"
	 viewBox="0 0 1920 734" style="enable-background:new 0 0 1920 734;" xml:space="preserve">
<style type="text/css">
	.st0{fill:#FFFFFF;}
</style>
<g>
	<g>
		<path class="st0" d="M222.4,296.91l166.7,96.67l-1.79,169.58L220.37,457.73L222.4,296.91z M575.51,296.64l0.14,160.62
			L408.64,562.48L407.69,395L575.51,296.64z M398.16,283.43c29.94,13.99,59.88,27.99,89.82,41.98c1.76-0.28,3.51-0.55,5.27-0.83
			c-31.54,18.07-63.08,36.14-94.62,54.2c-25.69-19.78-51.38-39.55-77.07-59.33C347.09,307.45,372.63,295.44,398.16,283.43z
			 M478.46,232.05c28.4,14.97,56.79,29.93,85.19,44.9c-22.2,12-44.41,24.01-66.61,36.01c-28.57-14.27-57.14-28.53-85.71-42.8
			C433.71,257.46,456.09,244.75,478.46,232.05z M304.94,222.38l76.63,51.58c-28.39,13.49-56.78,26.98-85.18,40.46
			c4.38,5.05,8.77,10.09,13.15,15.14l-80.34-52.15L304.94,222.38z M398.23,180.16c22.76,13.09,45.53,26.18,68.29,39.27
			c-24.31,14.27-48.62,28.54-72.93,42.81l-62.19-41.34C353.68,207.32,375.96,193.74,398.23,180.16z M397.38,162.08l-83.52,50.9
			c-4.71-3.51-9.42-7.03-14.14-10.54c-32.01,23.79-64.01,47.59-96.02,71.38l-1.52,189.96l196.24,125.1l194.49-120.9l-0.78-193.64
			L493,223.02c4.06-1.72,8.11-3.45,12.17-5.17C469.24,199.26,433.31,180.67,397.38,162.08z"/>
	</g>
	<g>
		<path class="st0" d="M618.57,279.31v-0.4c0-40.8,31.4-72.8,73.8-72.8c28.6,0,47,12,59.4,29.2l-29.2,22.6
			c-8-10-17.2-16.4-30.6-16.4c-19.6,0-33.4,16.6-33.4,37v0.4c0,21,13.8,37.4,33.4,37.4c14.6,0,23.2-6.8,31.6-17l29.2,20.8
			c-13.2,18.2-31,31.6-62,31.6C650.77,351.71,618.57,321.11,618.57,279.31z"/>
		<path class="st0" d="M760.57,279.31v-0.4c0-40.2,32.4-72.8,75.6-72.8c43.2,0,75.2,32.2,75.2,72.4v0.4c0,40.2-32.4,72.8-75.6,72.8
			S760.57,319.51,760.57,279.31z M871.77,279.31v-0.4c0-20.2-14.6-37.8-36-37.8c-21.2,0-35.4,17.2-35.4,37.4v0.4
			c0,20.2,14.6,37.8,35.8,37.8C857.57,316.71,871.77,299.51,871.77,279.31z"/>
		<path class="st0" d="M931.57,208.91h38.8v106h67.8v34h-106.6V208.91z"/>
		<path class="st0" d="M1054.76,208.91h38.8v106h67.8v34h-106.6V208.91z"/>
		<path class="st0" d="M1177.96,208.91h112.6v33h-74.2v21.2h67.2v30.6h-67.2v22.2h75.2v33h-113.6V208.91z"/>
		<path class="st0" d="M1305.56,279.31v-0.4c0-40.8,32-72.8,75.4-72.8c24.6,0,42,7.6,56.8,20.4l-22.8,27.4
			c-10-8.4-20-13.2-33.8-13.2c-20.2,0-35.8,17-35.8,38.4v0.4c0,22.6,15.8,38.8,38,38.8c9.4,0,16.6-2,22.4-5.8v-17h-27.6v-28.4h64.4
			v63c-14.8,12.2-35.4,21.6-60.8,21.6C1338.16,351.71,1305.56,321.71,1305.56,279.31z"/>
		<path class="st0" d="M1464.16,208.91h112.6v33h-74.2v21.2h67.2v30.6h-67.2v22.2h75.2v33h-113.6V208.91z"/>
	</g>
	<g>
		<path class="st0" d="M680.99,389.53v130.4h-10.4v-130.4h-48.8v-9.6h108v9.6H680.99z"/>
		<path class="st0" d="M862.19,519.92l-44.6-58h-45.8v58h-10.4v-140h58.8c30.2,0,50,16.4,50,39.8v0.4c0,23.4-17.4,36.8-41,40
			l46.2,59.8H862.19z M859.79,420.13c0-18.8-14.8-30.6-40.2-30.6h-47.8v63h47.2c23.4,0,40.8-11.8,40.8-32V420.13z"/>
		<path class="st0" d="M961.19,522.12c-33.6,0-57.4-21.2-57.4-60.4v-81.8h10.4v80.8c0,33,17.8,52,47.4,52c28.4,0,46.6-17.2,46.6-51
			v-81.8h10.4v80.6C1018.58,500.72,995.18,522.12,961.19,522.12z"/>
		<path class="st0" d="M1121.38,522.33c-40,0-69.6-31.8-69.6-72v-0.4c0-39.6,29.6-72.4,70-72.4c25,0,40,9.2,54.4,22.4l-7.4,7.6
			c-12.2-11.8-26.2-20.6-47.2-20.6c-33.6,0-59,27.4-59,62.6v0.4c0,35.4,25.8,63,59.2,63c20.2,0,34-7.8,48.2-21.8l7,6.8
			C1162.18,512.53,1146.18,522.33,1121.38,522.33z"/>
		<path class="st0" d="M1308.38,519.92l-57.6-70.8l-34.8,35.2v35.6h-10.4v-140h10.4v92l89.2-92h14.2l-61.2,61.8l63.8,78.2H1308.38z"
			/>
		<path class="st0" d="M1348.58,519.92v-140h99.6v9.6h-89.2v55h80.2v9.6h-80.2v56.2h90.2v9.6H1348.58z"/>
		<path class="st0" d="M1583.38,519.92l-44.6-58h-45.8v58h-10.4v-140h58.8c30.2,0,50,16.4,50,39.8v0.4c0,23.4-17.4,36.8-41,40
			l46.2,59.8H1583.38z M1580.98,420.13c0-18.8-14.8-30.6-40.2-30.6h-47.8v63h47.2c23.4,0,40.8-11.8,40.8-32V420.13z"/>
		<path class="st0" d="M1674.58,521.92c-22.4,0-39.6-7.4-56.4-22.4l6.8-7.8c15.4,14.2,29.6,20.8,50.2,20.8c21,0,35.4-11.8,35.4-27.8
			v-0.4c0-14.8-7.8-23.4-39.6-29.8c-33.6-6.8-47.2-18.2-47.2-39.4v-0.4c0-20.8,19-36.8,45-36.8c20.4,0,33.8,5.6,48,17l-6.6,8.2
			c-13.2-11.4-26.4-15.8-41.8-15.8c-20.6,0-34.2,11.8-34.2,26.4v0.4c0,14.8,7.6,23.8,40.8,30.6c32.4,6.6,46,18.2,46,38.6v0.4
			C1720.98,506.33,1701.58,521.92,1674.58,521.92z"/>
	</g>
</g>
</svg>
